<svg xmlns="http://www.w3.org/2000/svg" width="308" height="308" viewBox="0 0 308 308">
  <g id="Group_14" data-name="Group 14" transform="translate(-100 -498)">
    <g id="Group_5" data-name="Group 5" transform="translate(-288 372)">
      <circle id="Ellipse_5" data-name="Ellipse 5" cx="154" cy="154" r="154" transform="translate(388 126)" fill="#e4f5e0"/>
    </g>
    <g id="Group_9" data-name="Group 9" transform="translate(-847.452 -2.026)">
      <path id="Path_75" data-name="Path 75" d="M1054.14,624.058l-5.188,18.125s-3.949,16.554-13.37,3.918,5.425-30.55,5.425-30.55,6.9-9.152,7.944-16.441,5.174-20.867,18.431-22.72,20.683,9.21,20.683,9.21-3.227-25.974,18.112-25.569,22.8,21.5,31.155,21.5,23.624-7.783,30.142,10.1,3.049,54.218-6.61,63.648,6.61,43.483,6.61,43.483,9.312,39.386-21.109,46.811-37.343-13.33-26.2-36.387,9.95-26.362,0-40.736,4.788-33.6,3.575-41.789-2.893-15.7-20.777-13.6-14.9-13.949-14.9-13.949-13.077,21.413-24.224,19.861S1054.14,624.058,1054.14,624.058Z" transform="translate(0 0)"/>
      <path id="Path_76" data-name="Path 76" d="M1097.243,616.464s-5.5,22.476-41.527,20.79" transform="translate(-5.443 -12.864)" fill="none" stroke="#000" stroke-width="3"/>
      <path id="Path_77" data-name="Path 77" d="M1044.554,671.164s-2.848,44.029,31.314,55.006,57.125-27.579,57.125-27.579" transform="translate(-2.403 -22.178)" fill="none" stroke="#000" stroke-width="2"/>
      <path id="Path_78" data-name="Path 78" d="M1081.873,712.218s12.05,27.318,33.9,0" transform="translate(-9.862 -31.972)" fill="none" stroke="#000" stroke-width="2"/>
      <path id="Path_79" data-name="Path 79" d="M1098.3,659.155s5.193,13.631,4.553,20.979-2.065,7.18-8.1,7.585.467,6.956,8.1,6.552" transform="translate(-11.959 -19.782)" fill="none" stroke="#000" stroke-width="2"/>
      <ellipse id="Ellipse_17" data-name="Ellipse 17" cx="4.402" cy="6.003" rx="4.402" ry="6.003" transform="translate(1068.911 635.247)"/>
      <ellipse id="Ellipse_18" data-name="Ellipse 18" cx="4.402" cy="6.003" rx="4.402" ry="6.003" transform="translate(1099.327 635.247)"/>
      <path id="Path_80" data-name="Path 80" d="M1314.749,346.492h19.4l1.623-4.524a37.438,37.438,0,0,0-10.922,1.276C1319.33,344.818,1314.749,346.492,1314.749,346.492Z" transform="translate(-253.331 285.253)"/>
      <path id="Path_81" data-name="Path 81" d="M1358.1,341.632l1.111,5.017h19.277s-4.393-1.072-10.324-2.695S1358.1,341.632,1358.1,341.632Z" transform="translate(-261.983 285.316)"/>
      <ellipse id="Ellipse_1" data-name="Ellipse 1" cx="4.803" cy="5.203" rx="4.803" ry="5.203" transform="translate(1051.812 662.382)" fill="#ef2929"/>
      <ellipse id="Ellipse_2" data-name="Ellipse 2" cx="6.003" cy="5.203" rx="6.003" ry="5.203" transform="translate(1100.604 665.43) rotate(-45)" fill="#ef2929"/>
      <path id="Path_82" data-name="Path 82" d="M1065.58,731.8s-1.207,17.214-12.268,21.781" transform="translate(-4.163 -34.278)" fill="none" stroke="#000" stroke-width="2"/>
      <path id="Path_83" data-name="Path 83" d="M1118.671,737.7s-4.425,10.429,7.143,14.7" transform="translate(-17.04 -35.456)" fill="none" stroke="#000" stroke-width="2"/>
    </g>
  </g>
</svg>
