<svg xmlns="http://www.w3.org/2000/svg" width="308" height="308" viewBox="0 0 308 308">
  <g id="Group_13" data-name="Group 13" transform="translate(-507 -62)">
    <circle id="Ellipse_5" data-name="Ellipse 5" cx="154" cy="154" r="154" transform="translate(507 62)" fill="#e5f3ff"/>
    <g id="Group_4" data-name="Group 4">
      <path id="Path_16" data-name="Path 16" d="M3509.618,256.911s-24.109,11.427-27.554,53.72,4.912,52.818,12.126,58.713,15.5,22.757,42.738,7.76,35.962-42.011,35.962-42.011l3.12-14.018s-6.964-12.656-6.818-21.143-1.059-17.911-5.845-23.325-15.419-15.749-16.461-18.291-3.24-9.588-3.24-9.588-22.123,3.676-26.573,5.282S3509.618,256.911,3509.618,256.911Z" transform="translate(-2869 -99.531)" fill="none" stroke="#000" stroke-width="2"/>
      <path id="Path_17" data-name="Path 17" d="M3513.847,309.894l-9.224,23.423s-5.41,8.225,8.109,6.893" transform="translate(-2869 -99.531)" fill="none" stroke="#000" stroke-width="2"/>
      <path id="Path_18" data-name="Path 18" d="M3498.184,348.923s11.126,12.329,27.442,1.119" transform="translate(-2869 -99.531)" fill="none" stroke="#000" stroke-width="2"/>
      <path id="Path_19" data-name="Path 19" d="M3496.5,290.842s5.5-7.064,11,0" transform="translate(-2869 -99.531)" fill="none" stroke="#000" stroke-width="2"/>
      <path id="Path_20" data-name="Path 20" d="M3532.763,292.59s4.883-7.626,10.619-1.023" transform="translate(-2869 -99.531)" fill="none" stroke="#000" stroke-width="2"/>
      <ellipse id="Ellipse_5-2" data-name="Ellipse 5" cx="3.5" cy="4.5" rx="3.5" ry="4.5" transform="translate(627.733 201.797) rotate(13)"/>
      <ellipse id="Ellipse_6" data-name="Ellipse 6" cx="3.5" cy="4.5" rx="3.5" ry="4.5" transform="translate(663.733 203.797) rotate(13)"/>
      <path id="Path_21" data-name="Path 21" d="M3548.653,303.328s-2.827-.242-3.359,1.223" transform="translate(-2876.116 -99.516)" fill="none" stroke="#000" stroke-width="1"/>
      <path id="Path_24" data-name="Path 24" d="M3545.294,303.328s2.827-.242,3.359,1.223" transform="translate(-2920.575 -101.523)" fill="none" stroke="#000" stroke-width="1"/>
      <path id="Path_22" data-name="Path 22" d="M3548.653,303.328s-2.827-.242-3.359,1.223" transform="translate(-2654.938 -1062.852) rotate(16)" fill="none" stroke="#000" stroke-width="1"/>
      <path id="Path_23" data-name="Path 23" d="M3.359,1.223S.532,1.465,0,0" transform="translate(627.183 205.109) rotate(164)" fill="none" stroke="#000" stroke-width="1"/>
      <path id="Path_25" data-name="Path 25" d="M3481.263,304.566s-4.57-9.683-7.469-1.083,1.062,20.786,1.062,20.786,2.109,4.944,4.726,3.066" transform="translate(-2869 -99.531)" fill="none" stroke="#000" stroke-width="2"/>
      <path id="Path_26" data-name="Path 26" d="M3481.263,311.672s-3.3-4.395-4.5,0,.575,9.563,4.5,11.644" transform="translate(-2869 -99.531)" fill="none" stroke="#000" stroke-width="2"/>
      <path id="Path_27" data-name="Path 27" d="M3576.009,321.09s7.139-14.971,13.7-14.692,7.564,11.077,3,18.1a100.04,100.04,0,0,1-9.517,12.329s-7.7,7.752-9.147-6.559" transform="translate(-2869 -99.531)" fill="none" stroke="#000" stroke-width="2"/>
      <path id="Path_28" data-name="Path 28" d="M3574.048,327.761s5.294-10.933,9.828-12.175,5.851,3.7,4.508,6.939-6.337,10.338-6.825,3.25" transform="translate(-2869 -99.531)" fill="none" stroke="#000" stroke-width="2"/>
      <path id="Path_29" data-name="Path 29" d="M3494.708,370.65s7.208,9.448,6.14,19.688-6.993,18.733-25.989,26.6" transform="translate(-2869 -99.531)" fill="none" stroke="#000" stroke-width="2"/>
      <path id="Path_30" data-name="Path 30" d="M3548.135,369.3s-1.17,26.829,5.231,30.977,4.581,5.5,11.354,7.611" transform="translate(-2869 -99.531)" fill="none" stroke="#000" stroke-width="2"/>
      <path id="Path_31" data-name="Path 31" d="M3500.957,388.589s2.17,12.367,12.545,10.1,22.852-12.321,25.042-15.292,8.723-12.617,8.723-12.617-17.271,13.7-29.934,12.617-22.5-12.807-22.5-12.807,5.887,9.2,6.127,15.858S3500.957,388.589,3500.957,388.589Z" transform="translate(-2869 -99.531)"/>
      <path id="Path_32" data-name="Path 32" d="M3543.382,248.727s-45.914,2.823-64.171,30.169-7.176,50.956-7.176,50.956,2.8,23.962-3.164,30.96-10.787,26.212-7.865,32.391" transform="translate(-2869 -99.531)" fill="none" stroke="#000" stroke-width="2"/>
      <path id="Path_33" data-name="Path 33" d="M3483,348.923s.662,9.8-5.137,13.492,3.724,17.607,3.724,17.607.867,12.669-1.41,15.271-1.13,7.2,2.823,7.2,10.287.987,10.274-7.2-4.707-27.765-1.454-27.223" transform="translate(-2869 -99.531)" fill="none" stroke="#000" stroke-width="2"/>
      <path id="Path_34" data-name="Path 34" d="M3577.859,226.743s-28.154,12.685-33.912,21.948" transform="translate(-2869 -99.531)" fill="none" stroke="#000" stroke-width="2"/>
      <path id="Path_35" data-name="Path 35" d="M3449.17,388.589s.857-14.609,6.473-22.015,7.836-10.818,3.835-34.727-8.819-37.381,21.791-73.1" transform="translate(-2869 -99.531)" fill="none" stroke="#000" stroke-width="2"/>
      <path id="Path_36" data-name="Path 36" d="M3554.911,363.427s.372,6.139,4.854,9.727,5.736,9.712,2.946,15.964-2.724,14.92,0,16.981" transform="translate(-2869 -99.531)" fill="none" stroke="#000" stroke-width="2"/>
      <path id="Path_37" data-name="Path 37" d="M3569.3,344.394s-2.206,8.941,2.614,16.47-.591,14.217,3.033,19.143,9.3,16.578,4.472,22.355" transform="translate(-2869 -99.531)" fill="none" stroke="#000" stroke-width="2"/>
      <path id="Path_38" data-name="Path 38" d="M3588.884,331.424s6.015,8.547-2.916,15.432-2.19,32.636-2.19,32.636,11.317,14.731,5.106,19.124-21.671,8.052-25.384,7.934" transform="translate(-2869 -99.531)" fill="none" stroke="#000" stroke-width="2"/>
      <path id="Path_39" data-name="Path 39" d="M3595.517,320.965s6.643-2.093,3.624,23.259,2.823,27.208,2.823,27.208,4.46,16.319,2.153,20.633-10,6.285-10,6.285,1.644-16.314-6.791-25.505-1.2-25.385,0-27.086" transform="translate(-2869 -99.531)" fill="none" stroke="#000" stroke-width="2"/>
      <path id="Path_40" data-name="Path 40" d="M3599.06,325.125a31.246,31.246,0,0,1,5.338,21.392c-1.454,12.721,13.6,15.393,13.053,26.81s-1.555,14.656-1.555,14.656,12.53-6.286,14.33-11.406-5.427-28.064-12.775-39.62-8.118-29.891-8.985-52.9-4.538-48.842-31.2-57.3" transform="translate(-2869 -99.531)" fill="none" stroke="#000" stroke-width="3"/>
      <path id="Path_41" data-name="Path 41" d="M3477,373.378s4.313,21.1-2.206,23.97-3.682-5.588-24.46-6.583-23.414.756-20.61-21.455,10.15-30.72,10.15-30.72,8.74-7.684,10.46-32.9,2.2-44.035,26.666-65.261,43.559-28.759,69.16-25.624,31.78,12.388,31.78,12.388" transform="translate(-2869 -99.531)" fill="none" stroke="#000" stroke-width="3"/>
      <path id="Path_42" data-name="Path 42" d="M3594.037,278.153s-2.328,17.665,6.8,28.36a30.589,30.589,0,0,1,6.864,23.4s2.138,8.839,10.316,19.713,5.846,33.378,5.846,33.378" transform="translate(-2869 -99.531)" fill="none" stroke="#000" stroke-width="2"/>
      <path id="Path_43" data-name="Path 43" d="M3603.886,346s-2.545,8.9,5.886,21.417-5.886,26.149-5.886,26.149" transform="translate(-2869 -99.531)" fill="none" stroke="#000" stroke-width="2"/>
      <ellipse id="Ellipse_7" data-name="Ellipse 7" cx="6" cy="6.5" rx="6" ry="6.5" transform="translate(617.624 224.266)" fill="#ef2929"/>
      <ellipse id="Ellipse_8" data-name="Ellipse 8" cx="7.5" cy="6.5" rx="7.5" ry="6.5" transform="translate(674.701 227.38) rotate(-45)" fill="#ef2929"/>
    </g>
  </g>
</svg>
