<svg xmlns="http://www.w3.org/2000/svg" width="308" height="308" viewBox="0 0 308 308">
  <g id="Group_12" data-name="Group 12" transform="translate(-388 -126)">
    <circle id="Ellipse_5" data-name="Ellipse 5" cx="154" cy="154" r="154" transform="translate(388 126)" fill="#e7e8db"/>
    <g id="Group_2" data-name="Group 2">
      <g id="Group_1" data-name="Group 1" transform="translate(-0.02 10.902)">
        <path id="Path_1" data-name="Path 1" d="M2535.021,216.57a58.207,58.207,0,0,0-14.707,5.676c-8.886,4.858-19.2,13.574-21.8,25.305-4.771,21.525-2,65.029-2,65.029s.922,31.021,24.209,34.315,49.395-.909,56.227-13.868,8.622-17.351,9.272-23.752S2590,281.521,2590,281.521s-2.559-4.044-3.267-12.419c-.192-2.253-1.049-5.511-.519-8.757,2.217-13.582-.8-32.291-13.825-39.387-4.1-2.235-8.851-5.424-14.38-6.143C2546.924,213.372,2535.021,216.57,2535.021,216.57Z" transform="translate(-1990)" fill="none" stroke="#000" stroke-width="2"/>
        <path id="Path_2" data-name="Path 2" d="M2520.364,346.669s-.173,20-18.55,31.623" transform="translate(-1990)" fill="none" stroke="#000" stroke-width="2"/>
        <path id="Path_3" data-name="Path 3" d="M2566.376,342.24s-16.628,28.892,10.5,41.659" transform="translate(-1990)" fill="none" stroke="#000" stroke-width="2"/>
        <path id="Path_4" data-name="Path 4" d="M2517.357,318.747s19,6.888,32.742-2.407" transform="translate(-1990)" fill="none" stroke="#000" stroke-width="2"/>
        <path id="Path_5" data-name="Path 5" d="M2533.218,268.081s-10.092,20.923-8.687,30.261,6.06,12.8,17.936,7.9" transform="translate(-1990)" fill="none" stroke="#000" stroke-width="2"/>
        <path id="Path_6" data-name="Path 6" d="M2589.337,280.387s14.723-18.541,16.965-8.746-.273,19.953-7.206,24.681-9.958,6.464-11.387,0" transform="translate(-1990)" fill="none" stroke="#000" stroke-width="2"/>
        <path id="Path_7" data-name="Path 7" d="M2594.962,288.272s7.967-.27,5.452-8.676-10.708,2.326-11.408,8.676" transform="translate(-1990)" fill="none" stroke="#000" stroke-width="2"/>
        <path id="Path_8" data-name="Path 8" d="M2495.709,284.636s-7.972-12.108-14.281-5.914,5.032,20.778,5.032,20.778,5.809,7.127,9.249-2.113" transform="translate(-1990)" fill="none" stroke="#000" stroke-width="2"/>
        <path id="Path_9" data-name="Path 9" d="M2488.455,291.534s-4.066-1.563-3.125-6.66,5.66-4.048,8.824,2.431" transform="translate(-1988.787)" fill="none" stroke="#000" stroke-width="2"/>
        <path id="Path_10" data-name="Path 10" d="M2519.342,315.667s-3.306,3.067-2.319,6.356" transform="translate(-1990)" fill="none" stroke="#000" stroke-width="2"/>
        <path id="Path_11" data-name="Path 11" d="M2548.229,313.367s3.283,2.494,1.562,6.082" transform="translate(-1990)" fill="none" stroke="#000" stroke-width="2"/>
        <ellipse id="Ellipse_1" data-name="Ellipse 1" cx="6" cy="6.5" rx="6" ry="6.5" transform="translate(510 284)" fill="#ef2929"/>
        <ellipse id="Ellipse_2" data-name="Ellipse 2" cx="7.5" cy="6.5" rx="7.5" ry="6.5" transform="translate(567.078 287.114) rotate(-45)" fill="#ef2929"/>
        <ellipse id="Ellipse_3" data-name="Ellipse 3" cx="3.5" cy="4.5" rx="3.5" ry="4.5" transform="translate(523 268)"/>
        <ellipse id="Ellipse_4" data-name="Ellipse 4" cx="3.5" cy="4.5" rx="3.5" ry="4.5" transform="translate(564 265)"/>
        <path id="Path_12" data-name="Path 12" d="M2509.182,253.789c.988-.985,13.636-10.545,18.121-3.153a7.99,7.99,0,0,1,.925,6.639c-.5,2.64-2.573,4.178-5.455,1.9-4.568-3.609-12.333,0-12.333,0s-4.034,1.326-4.034,0S2508.194,254.774,2509.182,253.789Z" transform="translate(-1990)"/>
        <path id="Path_13" data-name="Path 13" d="M2549.259,258.475s-2.9-10.51,1.881-11.547,12.825.222,16.6,5.49-1.165,4.372-1.165,4.372-7.591-1.358-11.572,0A47.306,47.306,0,0,1,2549.259,258.475Z" transform="translate(-1990)"/>
        <path id="Path_14" data-name="Path 14" d="M2533.2,346.217l-2.784-14.986s-.6-3.994,1.787-3.994h6.814s3.444-.491,1.962,3.994-4.305,15.419-4.305,15.419Z" transform="translate(-1990 1.85)"/>
        <path id="Path_15" data-name="Path 15" d="M2484.637,275.639s-3.446-22.65-1.986-27.9-6.413,6.5-6.413,6.5-1.8.718-1.143-8.1-4,0-4,0-7.1,5.078-4.9-3.415,4.9-12.465,4.9-12.465l-6.851,3.747s-7.041,7.443-4.291-1.512a160.571,160.571,0,0,1,6.245-16.71s4.317-6.3-1.954-2.519-10.412,8.755-7,0,7.807-19.047,16.3-24.891,14.884-11.31,14.884-11.31h-10.424s-2.579-3.244,4.637-7.256,24.261-6.693,24.261-6.693l-5.342-3.136s-3.6-3.67,6.423-5.338,21.038,3.493,21.038,3.493l-2.794-7.046s23.881,2.019,37.932,15.083,13.172,22.2,13.172,22.2,9.189-4.874,12.977-4.446-8.8,13.235-8.8,13.235,11.016-5.141,14.884-5.046-7.508,8.2-7.508,8.2h6.485s8.281-.483,2.554,2.949-3.963,2.672-3.963,2.672,7.418,2.151,7.581,19.192-2.559,43.364-1.746,45.4c.185.464-4.477,3.828-5.519,5.1-2.672,3.274-5.529,6.811-5.529,6.811a45.393,45.393,0,0,1-2.623-9.865c-.556-3.46-1.578-7.053-1.3-13.423.08-1.84-.2-5.246,0-7.689.064-.792.044-2.64,0-3.731a34.546,34.546,0,0,0-1.236-8.541c-3.315-12.157-11.332-18.262-14.2-19.38-3.652-1.424-11.595-8.942-38.8-1.395s-31.739,31.352-31.739,31.352-1.4,23.613-1.4,28.623v10.2s-5-7.308-7.465-9.148S2484.637,275.639,2484.637,275.639Z" transform="translate(-1990 1)"/>
      </g>
    </g>
  </g>
</svg>
